{
  "accessors": [
    {
      "bufferView": 1,
      "componentType": 5126,
      "count": 1362,
      "max": [
        0.83077001571655273,
        2.3923499584197998,
        0.44874000549316406
      ],
      "min": [
        -0.83077001571655273,
        -3.1145799160003662,
        -0.28183001279830933
      ],
      "type": "VEC3"
    },
    {
      "bufferView": 1,
      "byteOffset": 16344,
      "componentType": 5126,
      "count": 1362,
      "max": [
        1,
        1,
        0.9971345067024231
      ],
      "min": [
        -1,
        -1,
        -1
      ],
      "type": "VEC3"
    },
    {
      "bufferView": 0,
      "componentType": 5125,
      "count": 2004,
      "max": [
        1361
      ],
      "min": [
        0
      ],
      "type": "SCALAR"
    },
    {
      "bufferView": 1,
      "byteOffset": 32688,
      "componentType": 5126,
      "count": 1024,
      "max": [
        0.6021999716758728,
        2.4255900382995605,
        0.57934999465942383
      ],
      "min": [
        -0.6021999716758728,
        -2.6071000099182129,
        -0.19142000377178192
      ],
      "type": "VEC3"
    },
    {
      "bufferView": 1,
      "byteOffset": 44976,
      "componentType": 5126,
      "count": 1024,
      "max": [
        1,
        1,
        0.99166274070739746
      ],
      "min": [
        -1,
        -1,
        -0.99309390783309937
      ],
      "type": "VEC3"
    },
    {
      "bufferView": 0,
      "byteOffset": 8016,
      "componentType": 5125,
      "count": 1566,
      "max": [
        1023
      ],
      "min": [
        0
      ],
      "type": "SCALAR"
    },
    {
      "bufferView": 1,
      "byteOffset": 57264,
      "componentType": 5126,
      "count": 214,
      "max": [
        0.1950799971818924,
        1.1139400005340576,
        0.66746997833251953
      ],
      "min": [
        -0.1950799971818924,
        -2.0459399223327637,
        0.28516998887062073
      ],
      "type": "VEC3"
    },
    {
      "bufferView": 1,
      "byteOffset": 59832,
      "componentType": 5126,
      "count": 214,
      "max": [
        1,
        1,
        1
      ],
      "min": [
        -1,
        -1,
        -1
      ],
      "type": "VEC3"
    },
    {
      "bufferView": 0,
      "byteOffset": 14280,
      "componentType": 5125,
      "count": 474,
      "max": [
        213
      ],
      "min": [
        0
      ],
      "type": "SCALAR"
    },
    {
      "bufferView": 1,
      "byteOffset": 62400,
      "componentType": 5126,
      "count": 48,
      "max": [
        0.13806000351905823,
        1.5682400465011597,
        0.66995000839233398
      ],
      "min": [
        -0.14305999875068665,
        -2.5561099052429199,
        -0.012980000115931034
      ],
      "type": "VEC3"
    },
    {
      "bufferView": 1,
      "byteOffset": 62976,
      "componentType": 5126,
      "count": 48,
      "max": [
        0.31213897466659546,
        0.28302142024040222,
        0.99524831771850586
      ],
      "min": [
        -0.32952025532722473,
        -0.82936215400695801,
        0.5587114691734314
      ],
      "type": "VEC3"
    },
    {
      "bufferView": 0,
      "byteOffset": 16176,
      "componentType": 5125,
      "count": 72,
      "max": [
        47
      ],
      "min": [
        0
      ],
      "type": "SCALAR"
    }
  ],
  "asset": {
    "extras": {
      "author": "Robin Butler (https://sketchfab.com/StarTrekGuy)",
      "license": "CC-BY-4.0 (http://creativecommons.org/licenses/by/4.0/)",
      "source": "https://sketchfab.com/models/6d95a3b44b3840d9802a91c8d117f6a6",
      "title": "Low Poly Violin"
    },
    "generator": "Sketchfab-3.43.6",
    "version": "2.0"
  },
  "bufferViews": [
    {
      "buffer": 0,
      "byteLength": 16464,
      "byteOffset": 0,
      "name": "floatBufferViews",
      "target": 34963
    },
    {
      "buffer": 0,
      "byteLength": 63552,
      "byteOffset": 16464,
      "byteStride": 12,
      "name": "floatBufferViews",
      "target": 34962
    }
  ],
  "buffers": [
    {
      "byteLength": 80016,
      "uri": "scene.bin"
    }
  ],
  "extensionsRequired": [
    "KHR_materials_pbrSpecularGlossiness"
  ],
  "extensionsUsed": [
    "KHR_materials_pbrSpecularGlossiness"
  ],
  "materials": [
    {
      "doubleSided": true,
      "extensions": {
        "KHR_materials_pbrSpecularGlossiness": {
          "diffuseFactor": [
            0.01018951550142398,
            0.0041322994273557722,
            0.0015403805858988122,
            1
          ],
          "glossinessFactor": 0,
          "specularFactor": [
            0,
            0,
            0
          ]
        }
      },
      "name": "Material.001"
    },
    {
      "doubleSided": true,
      "extensions": {
        "KHR_materials_pbrSpecularGlossiness": {
          "diffuseFactor": [
            0,
            0,
            0,
            1
          ],
          "glossinessFactor": 0,
          "specularFactor": [
            0,
            0,
            0
          ]
        }
      },
      "name": "Material.002"
    },
    {
      "doubleSided": true,
      "extensions": {
        "KHR_materials_pbrSpecularGlossiness": {
          "diffuseFactor": [
            0.069357137200000002,
            0.040624449899999998,
            0.014415517399999999,
            1
          ],
          "glossinessFactor": 0,
          "specularFactor": [
            0,
            0,
            0
          ]
        }
      },
      "name": "Material"
    },
    {
      "doubleSided": true,
      "extensions": {
        "KHR_materials_pbrSpecularGlossiness": {
          "diffuseFactor": [
            0.022903998599999999,
            0.0192184748,
            0.016735858900000001,
            1
          ],
          "glossinessFactor": 0.21169969509999997,
          "specularFactor": [
            0.0504954268,
            0.0504954268,
            0.0504954268
          ]
        }
      },
      "name": "Material.003"
    }
  ],
  "meshes": [
    {
      "name": "Plane.005_0",
      "primitives": [
        {
          "attributes": {
            "NORMAL": 1,
            "POSITION": 0
          },
          "indices": 2,
          "material": 0,
          "mode": 4
        }
      ]
    },
    {
      "name": "Plane.005_1",
      "primitives": [
        {
          "attributes": {
            "NORMAL": 4,
            "POSITION": 3
          },
          "indices": 5,
          "material": 1,
          "mode": 4
        }
      ]
    },
    {
      "name": "Plane.005_2",
      "primitives": [
        {
          "attributes": {
            "NORMAL": 7,
            "POSITION": 6
          },
          "indices": 8,
          "material": 2,
          "mode": 4
        }
      ]
    },
    {
      "name": "Plane.005_3",
      "primitives": [
        {
          "attributes": {
            "NORMAL": 10,
            "POSITION": 9
          },
          "indices": 11,
          "material": 3,
          "mode": 4
        }
      ]
    }
  ],
  "nodes": [
    {
      "children": [
        1
      ],
      "name": "RootNode (gltf orientation matrix)",
      "rotation": [
        -0.70710678118654746,
        -0,
        -0,
        0.70710678118654757
      ]
    },
    {
      "children": [
        2
      ],
      "name": "RootNode (model correction matrix)"
    },
    {
      "children": [
        3
      ],
      "name": "Root"
    },
    {
      "children": [
        4,
        5,
        6,
        7
      ],
      "matrix": [
        1,
        0,
        0,
        0,
        0,
        1,
        0,
        0,
        0,
        0,
        1,
        0,
        0,
        0,
        -0.091780000000000028,
        1
      ],
      "name": "Plane.005"
    },
    {
      "mesh": 0,
      "name": "Plane.005_0"
    },
    {
      "mesh": 1,
      "name": "Plane.005_1"
    },
    {
      "mesh": 2,
      "name": "Plane.005_2"
    },
    {
      "mesh": 3,
      "name": "Plane.005_3"
    }
  ],
  "scene": 0,
  "scenes": [
    {
      "name": "OSG_Scene",
      "nodes": [
        0
      ]
    }
  ]
}

